<svg width="165" height="48" viewBox="0 0 165 48" fill="none" xmlns="http://www.w3.org/2000/svg">
<mask id="path-1-inside-1_5890_56" fill="white">
<path fill-rule="evenodd" clip-rule="evenodd" d="M165 0H18L0 18V48H165V0Z"/>
</mask>
<path d="M18 0V-2H17.1716L16.5858 -1.41421L18 0ZM165 0H167V-2H165V0ZM0 18L-1.41421 16.5858L-2 17.1716V18H0ZM0 48H-2V50H0V48ZM165 48V50H167V48H165ZM18 2H165V-2H18V2ZM16.5858 -1.41421L-1.41421 16.5858L1.41421 19.4142L19.4142 1.41421L16.5858 -1.41421ZM2 48V18H-2V48H2ZM165 46H0V50H165V46ZM163 0V48H167V0H163Z" fill="#004236" mask="url(#path-1-inside-1_5890_56)"/>
</svg>
