<svg width="225" height="48" viewBox="0 0 225 48" fill="none" xmlns="http://www.w3.org/2000/svg">
<mask id="path-1-inside-1_5745_5556" fill="white">
<path fill-rule="evenodd" clip-rule="evenodd" d="M225 0H18L0 18V48H225V0Z"/>
</mask>
<path d="M18 0V-2H17.1716L16.5858 -1.41421L18 0ZM225 0H227V-2H225V0ZM0 18L-1.41421 16.5858L-2 17.1716V18H0ZM0 48H-2V50H0V48ZM225 48V50H227V48H225ZM18 2H225V-2H18V2ZM16.5858 -1.41421L-1.41421 16.5858L1.41421 19.4142L19.4142 1.41421L16.5858 -1.41421ZM2 48V18H-2V48H2ZM225 46H0V50H225V46ZM223 0V48H227V0H223Z" fill="#D8CDB3" mask="url(#path-1-inside-1_5745_5556)"/>
</svg>
