<svg width="98" height="105" viewBox="0 0 98 105" fill="none" xmlns="http://www.w3.org/2000/svg">
<g clip-path="url(#clip0_6311_16805)">
<path d="M46.8978 25.8347L41.9844 26.5881L42.2984 28.635L47.2118 27.8816L46.8978 25.8347Z" fill="#004236"/>
<path d="M45.9719 52.6242L45.3174 48.3417L50.2302 47.5879L50.8847 51.8704L45.9719 52.6242ZM45.0523 46.627L44.3978 42.3445L49.3106 41.5908L49.9651 45.8733L45.0523 46.627ZM44.1327 40.6299L43.4782 36.3474L48.391 35.5936L49.0455 39.8761L44.1327 40.6299ZM43.2131 34.6327L42.5586 30.3502L47.4714 29.5964L48.1259 33.8789L43.2131 34.6327Z" fill="#004236"/>
<path d="M51.148 53.5839L46.2344 54.3357L46.5477 56.3827L51.4613 55.6309L51.148 53.5839Z" fill="#004236"/>
<path d="M47.4167 54.0934L23.4199 73.9915L26.5931 77.817L50.5899 57.919L47.4167 54.0934Z" fill="#EF8030"/>
<path d="M66.8078 53.5188H49.0039V58.4888H66.8078V53.5188Z" fill="#EF8030"/>
<path d="M95.004 53.5354L90 58.5386H93.7696H97.6799V53.5354H95.004Z" fill="#EF8030"/>
<path d="M2.67597 58.5386L7.67994 53.5354H3.91039H0V58.5386H2.67597Z" fill="#EF8030"/>
<path d="M51.4981 102.003L46.4941 97V100.769V104.679H51.4981V102.003Z" fill="#EF8030"/>
<path d="M79.9743 85.2133L78.2168 86.9705L85.9086 94.661L87.666 92.9038L79.9743 85.2133Z" fill="#004236"/>
<path d="M12.1032 17.3561L10.3457 19.1133L18.0375 26.8038L19.795 25.0467L12.1032 17.3561Z" fill="#004236"/>
<path d="M85.9047 17.351L78.2129 25.0415L79.9703 26.7987L87.6621 19.1081L85.9047 17.351Z" fill="#004236"/>
<path d="M18.0355 85.2103L10.3438 92.9009L12.1012 94.658L19.793 86.9675L18.0355 85.2103Z" fill="#004236"/>
<path d="M4.91602 48H0V7H40V11.5999H4.91602V48Z" fill="#004236"/>
<path d="M98 47H92.999V11.4877H57V7H98V47Z" fill="#004236"/>
<path d="M98 105H58V100.506H93.5098V65H98V105Z" fill="#004236"/>
<path d="M40 105H0V65H4.49186V100.506H40V105Z" fill="#004236"/>
<path d="M58.491 18.9938H39.4941V0H58.491V18.9938ZM41.9796 16.5088H56.0056V2.48501H41.9796V16.5088Z" fill="#EF8030"/>
</g>
<defs>
<clipPath id="clip0_6311_16805">
<rect width="98" height="105" fill="white"/>
</clipPath>
</defs>
</svg>
