<svg width="98" height="98" viewBox="0 0 98 98" fill="none" xmlns="http://www.w3.org/2000/svg">
<g clip-path="url(#clip0_6311_16788)">
<path d="M94.6388 1.6078L56.7188 39.5278L58.4762 41.2853L96.3962 3.36526L94.6388 1.6078Z" fill="#004236"/>
<path d="M39.4943 56.7416L1.60352 94.6323L3.36097 96.3898L41.2517 58.499L39.4943 56.7416Z" fill="#004236"/>
<path d="M81.4684 79.7079L79.7109 81.4653L94.6376 96.392L96.395 94.6345L81.4684 79.7079Z" fill="#004236"/>
<path d="M3.36292 1.60558L1.60547 3.36304L16.5204 18.278L18.2779 16.5205L3.36292 1.60558Z" fill="#004236"/>
<path d="M16.2794 52.2021L24.6139 43.8677H18.3341H11.8223V52.2021H16.2794Z" fill="#EF8030"/>
<path d="M81.7211 43.8677L73.3867 52.2021H79.6665H86.1783V43.8677H81.7211Z" fill="#EF8030"/>
<path d="M16.2794 52.2021L24.6139 43.8677H18.3341H11.8223V52.2021H16.2794Z" fill="#004236"/>
<path d="M81.7211 43.8677L73.3867 52.2021H79.6665H86.1783V43.8677H81.7211Z" fill="#004236"/>
<path d="M44.8379 15.3185L53.164 23.6447V17.3648V10.8613H44.8379V15.3185Z" fill="#004236"/>
<path d="M53.164 80.7512L44.8379 72.425V78.7049V85.2084H53.164V80.7512Z" fill="#004236"/>
<path d="M50.2393 35.6492H47.7539V62.4254H50.2393V35.6492Z" fill="#EF8030"/>
<path d="M62.3837 47.7947H35.6074V50.2801H62.3837V47.7947Z" fill="#EF8030"/>
<path d="M97.9993 98H82.5234V93.0292H93.0285V82.5242H97.9993V98Z" fill="#EF8030"/>
<path d="M4.97083 15.4759H0V0H15.4759V4.97083H4.97083V15.4759Z" fill="#EF8030"/>
<path d="M97.9993 15.4759H93.0285V4.97083H82.5234V0H97.9993V15.4759Z" fill="#EF8030"/>
<path d="M15.4759 98H0V82.5242H4.97083V93.0292H15.4759V98Z" fill="#EF8030"/>
</g>
<defs>
<clipPath id="clip0_6311_16788">
<rect width="98" height="98" fill="white"/>
</clipPath>
</defs>
</svg>
