<svg width="35" height="54" viewBox="0 0 35 54" fill="none" xmlns="http://www.w3.org/2000/svg">
<g clip-path="url(#clip0_6311_18813)">
<path d="M23.1918 0.519722L31.5521 9.28074C31.7761 9.50348 32 9.83759 32 10.3202V31.0719C32 31.5916 31.5894 32 31.0296 32H3.93308C3.41055 32 3 31.5916 3 31.0348V0.928074C3 0.408353 3.41055 0 3.9704 0H22.0721C22.5946 0 22.9678 0.222738 23.1918 0.445476V0.519722ZM9.38224 25.8747C10.4273 26.7657 11.9949 23.0162 12.2188 22.4223C11.6216 22.7935 8.29987 24.9466 9.38224 25.8747ZM8.1879 27.2854C6.80695 26.3944 7.03089 24.6868 8.29987 23.239C9.27027 22.0882 11.0245 20.9002 13.0772 19.8237C13.5251 18.116 13.8983 16.3712 14.0849 14.6264C12.4054 12.993 11.0991 11.2854 10.6139 9.91183C10.0541 8.27842 10.5766 6.942 12.1815 6.38515C13.861 5.79118 15.0553 6.64501 15.6525 8.35267C16.1377 9.68909 16.2124 11.6937 16.0257 13.9211C17.2574 15.0719 18.6384 16.1485 20.0566 17.0766C22.2214 16.4826 24.2368 16.1856 25.5804 16.4455C27.1853 16.7425 28.0438 17.7819 27.7825 19.2297C27.4839 20.9374 26.2149 21.4571 24.4607 21.1601C23.1544 20.9374 21.4749 20.1578 19.758 19.1183C18.0039 19.6381 16.287 20.3434 14.6448 21.123C14.0476 23.0905 11.9575 29.7726 8.1879 27.2854ZM15.242 18.7842C16.0631 18.413 16.9215 18.0789 17.7799 17.7819C17.0708 17.2622 16.399 16.7425 15.7272 16.1856C15.5779 17.0766 15.4286 17.9304 15.242 18.8213V18.7842ZM14.2342 12.1392C14.2342 11.3968 14.2342 7.64733 12.7413 8.12993C11.2111 8.64965 13.749 11.5824 14.2342 12.1392ZM22.3333 18.413C22.8559 18.6729 25.7297 20.0464 25.9163 18.8956C26.103 17.7448 22.8185 18.3387 22.3333 18.413ZM30.1339 11.0626H22.3707C21.8481 11.0626 21.4376 10.6543 21.4376 10.0974V1.93039H4.90348V30.181H30.1339V11.0626ZM28.9022 9.2065L23.3037 3.34107V9.2065H28.9022Z" fill="#004236"/>
</g>
<path d="M1 39V40H34V39" stroke="#EF8030" stroke-width="2"/>
<path d="M12 46.5L17.5 52L23 46.5M17.5 39.5V46.5" stroke="#EF8030" stroke-width="2"/>
<defs>
<clipPath id="clip0_6311_18813">
<rect width="29" height="32" fill="white" transform="translate(3)"/>
</clipPath>
</defs>
</svg>
