<svg width="383" height="86" viewBox="0 0 383 86" fill="none" xmlns="http://www.w3.org/2000/svg">
<mask id="mask0_5948_20079" style="mask-type:luminance" maskUnits="userSpaceOnUse" x="0" y="0" width="383" height="86">
<path d="M382.801 0H0V86H382.801V0Z" fill="white"/>
</mask>
<g mask="url(#mask0_5948_20079)">
<path d="M99.2295 63.8154C105.936 63.8154 110.388 68.5165 110.388 74.906C110.388 81.2956 105.925 86.0004 99.2295 86.0004C92.5343 86.0004 88.0708 81.2994 88.0708 74.906C88.0708 68.5126 92.4041 63.8154 99.2295 63.8154ZM99.2295 81.9096C102.939 81.9096 105.431 78.947 105.431 74.8983C105.431 70.8497 102.935 67.8871 99.2295 67.8871C95.5239 67.8871 93.0242 70.7538 93.0242 74.8983C93.0242 79.0429 95.5201 81.9096 99.2295 81.9096Z" fill="#247753"/>
<path d="M124.816 64.1948H129.655V81.579H139.792V85.6238H124.832V64.1948H124.816Z" fill="#247753"/>
<path d="M155.123 64.207H159.981V76.9094C159.981 80.1521 161.569 81.9213 164.689 81.9213C167.809 81.9213 169.397 80.1483 169.397 76.9094V64.207H174.236V76.9746C174.236 83.7633 170.282 86.0044 164.689 86.0044C159.096 86.0044 155.111 83.7595 155.111 76.9746V64.207H155.123Z" fill="#247753"/>
<path d="M187.201 64.1948H206.314V68.2089H199.175V85.6162H194.337V68.2089H187.197V64.1948H187.201Z" fill="#247753"/>
<path d="M226.377 64.1919H221.539V85.6247H226.377V64.1919Z" fill="#247753"/>
<path d="M251.064 63.8154C257.771 63.8154 262.223 68.5165 262.223 74.906C262.223 81.2956 257.76 86.0004 251.064 86.0004C244.369 86.0004 239.906 81.2994 239.906 74.906C239.906 68.5126 244.235 63.8154 251.064 63.8154ZM251.064 81.9096C254.774 81.9096 257.27 78.947 257.27 74.8983C257.27 70.8497 254.774 67.8871 251.064 67.8871C247.355 67.8871 244.859 70.7538 244.859 74.8983C244.859 79.0429 247.355 81.9096 251.064 81.9096Z" fill="#247753"/>
<path d="M274.496 64.1948H278.794L288.996 77.3999H289.122L288.996 64.1948H293.869V85.6238H289.655L279.334 72.3535H279.208L279.334 85.6238H274.496V64.1948Z" fill="#247753"/>
<path d="M62.8294 79.5256C62.8294 81.4597 64.5482 82.5112 67.0746 82.5112C69.7849 82.5112 71.4386 81.4482 71.4386 79.6446C71.4386 75.1239 58.4961 79.0881 58.4961 70.3922C58.4961 66.6582 61.8073 63.8223 67.1627 63.8223C72.5181 63.8223 75.6111 66.2783 75.6111 70.0161H70.9333C70.9333 68.2431 69.3102 67.3106 67.1627 67.3106C65.0152 67.3106 63.2581 68.2124 63.2581 69.8971C63.2581 74.4408 76.3193 70.4881 76.3193 79.0881C76.3193 83.202 73.0195 86.0034 67.0593 86.0034C61.0991 86.0034 58.1362 83.5743 58.1362 79.5295H62.8255L62.8294 79.5256Z" fill="#247753"/>
<path d="M311.175 79.5256C311.175 81.4597 312.898 82.5112 315.421 82.5112C318.131 82.5112 319.785 81.4482 319.785 79.6446C319.785 75.1239 306.842 79.0881 306.842 70.3922C306.842 66.6582 310.153 63.8223 315.505 63.8223C320.856 63.8223 323.957 66.2783 323.957 70.0161H319.279C319.279 68.2431 317.656 67.3106 315.505 67.3106C313.354 67.3106 311.6 68.2163 311.6 69.8971C311.6 74.4408 324.662 70.4881 324.662 79.0881C324.662 83.202 321.35 86.0034 315.394 86.0034C309.437 86.0034 306.475 83.5743 306.475 79.5295H311.175V79.5256Z" fill="#247753"/>
<path d="M51.8166 37.3592V24.9216H72.8936V18.4285H51.8166V7.1767H73.2917V0.679688H44.2983V43.8562H73.8008V37.3592H51.8166Z" fill="#247753"/>
<path d="M109.278 25.8849C114.775 23.9277 117.926 19.5682 117.926 13.904C117.926 9.95126 116.406 6.62025 113.539 4.27549C110.668 1.92306 106.572 0.679688 101.706 0.679688H85.1465V43.8524H92.6571V27.0668H101.584L111.384 43.7987L111.418 43.8524H120.096L109.271 25.8887H109.274L109.278 25.8849ZM110.189 13.904C110.189 18.179 107.161 20.6312 101.879 20.6312H92.6647V7.18054H101.879C107.161 7.18054 110.189 9.63274 110.189 13.9078V13.904Z" fill="#247753"/>
<path d="M153.469 25.8849C158.966 23.9277 162.116 19.5682 162.116 13.904C162.116 9.95126 160.604 6.62025 157.729 4.27549C154.858 1.92306 150.762 0.679688 145.897 0.679688H129.337V43.8524H136.847V27.0668H145.774L155.578 43.7948L155.612 43.8485H164.291L153.461 25.8849H153.469ZM146.069 20.6274H136.851V7.1767H146.069C151.352 7.1767 154.38 9.62891 154.38 13.904C154.38 18.179 151.352 20.6312 146.069 20.6312V20.6274Z" fill="#247753"/>
<path d="M200.083 0.756439L200.056 0.679688H185.938L170.998 43.8524H178.918L183.04 31.5338H202.95L207.073 43.8524H214.993L200.083 0.756439ZM200.783 25.0943H185.211L193.028 2.04203L200.787 25.0943H200.783Z" fill="#247753"/>
<path d="M273.087 0.679688L263.861 42.3289L256.496 0.771789L256.481 0.679688H242.333L234.895 42.16L225.75 0.764114L225.73 0.679688H218.155L227.794 43.768L227.813 43.8524H242.126L249.437 2.22623L256.691 43.8524H271.004L280.632 0.81784L280.662 0.679688H273.087Z" fill="#247753"/>
<path d="M298.256 0.679688H290.746V43.8524H298.256V0.679688Z" fill="#247753"/>
<path d="M331.606 19.0541L325.902 17.8107C319.861 16.4484 317.166 15.2511 317.166 11.7589C317.166 8.51613 320.803 6.15986 325.814 6.15986C330.825 6.15986 334.04 8.16691 335.204 12.1273L335.231 12.2079H343.021L343.002 12.0774C342.37 8.48543 340.51 5.47677 337.627 3.36611C334.618 1.16718 330.538 0.00439453 325.822 0.00439453C316.604 0.00439453 309.66 5.35013 309.66 12.4343C309.66 18.5053 313.645 22.458 321.507 24.1849L327.272 25.4283C333.738 26.8712 336.624 28.1415 336.624 31.8716C336.624 35.8819 332.597 38.3724 326.109 38.3724C320.554 38.3724 316.837 35.4712 316.156 30.6129L316.144 30.5169H308.347L308.362 30.6436C309.602 39.209 316.336 44.5279 325.936 44.5279C331.296 44.5279 335.843 43.2615 339.086 40.8707C342.351 38.4645 344.077 35.076 344.077 31.0849C344.077 24.5994 340.353 20.9998 331.613 19.0541V19.0618L331.606 19.0541Z" fill="#247753"/>
<path d="M21.2952 0.680176H0V8.19031H21.2952V0.680176Z" fill="#247753"/>
<path d="M28.806 0.679688L21.2954 8.19365H35.9108V0.679688H28.806Z" fill="#247753"/>
<path d="M13.7852 15.7045V43.784H21.2957V8.19434L13.7852 15.7045Z" fill="#247753"/>
<path d="M360.813 37.3592V7.1767H382.288V0.679688H353.302V43.8562H382.801V37.3592H360.813Z" fill="#247753"/>
<path d="M367.302 18.4258L360.81 24.9228H381.898V18.4258H367.302Z" fill="#247753"/>
</g>
</svg>
