<svg width="267" height="60" viewBox="0 0 267 60" fill="none" xmlns="http://www.w3.org/2000/svg">
<g clip-path="url(#clip0_6001_4839)">
<mask id="mask0_6001_4839" style="mask-type:luminance" maskUnits="userSpaceOnUse" x="0" y="0" width="267" height="60">
<path d="M267 0H0V59.9973H267V0Z" fill="white"/>
</mask>
<g mask="url(#mask0_6001_4839)">
<path d="M69.2118 44.52C73.8896 44.52 76.9948 47.7997 76.9948 52.2573C76.9948 56.7149 73.8816 59.9972 69.2118 59.9972C64.5419 59.9972 61.4287 56.7176 61.4287 52.2573C61.4287 47.797 64.4511 44.52 69.2118 44.52ZM69.2118 57.1433C71.799 57.1433 73.5372 55.0764 73.5372 52.2519C73.5372 49.4274 71.7963 47.3606 69.2118 47.3606C66.6272 47.3606 64.8837 49.3605 64.8837 52.2519C64.8837 55.1434 66.6245 57.1433 69.2118 57.1433Z" fill="#004B41"/>
<path d="M87.0581 44.7852H90.433V56.9131H97.5031V59.735H87.0688V44.7852H87.0581Z" fill="#004B41"/>
<path d="M108.196 44.793H111.585V53.6547C111.585 55.917 112.693 57.1512 114.869 57.1512C117.045 57.1512 118.153 55.9143 118.153 53.6547V44.793H121.528V53.7002C121.528 58.4363 118.77 59.9998 114.869 59.9998C110.968 59.9998 108.188 58.4336 108.188 53.7002V44.793H108.196Z" fill="#004B41"/>
<path d="M130.571 44.7852H143.902V47.5856H138.923V59.7296H135.548V47.5856H130.568V44.7852H130.571Z" fill="#004B41"/>
<path d="M157.896 44.7822H154.521V59.7347H157.896V44.7822Z" fill="#004B41"/>
<path d="M175.115 44.52C179.792 44.52 182.898 47.7997 182.898 52.2573C182.898 56.7149 179.784 59.9972 175.115 59.9972C170.445 59.9972 167.332 56.7176 167.332 52.2573C167.332 47.797 170.351 44.52 175.115 44.52ZM175.115 57.1433C177.702 57.1433 179.443 55.0764 179.443 52.2519C179.443 49.4274 177.702 47.3606 175.115 47.3606C172.527 47.3606 170.787 49.3605 170.787 52.2519C170.787 55.1434 172.527 57.1433 175.115 57.1433Z" fill="#004B41"/>
<path d="M191.458 44.7852H194.456L201.571 53.9976H201.66L201.571 44.7852H204.97V59.735H202.031L194.832 50.477H194.744L194.832 59.735H191.458V44.7852Z" fill="#004B41"/>
<path d="M43.8227 55.4807C43.8227 56.8301 45.0216 57.5636 46.7838 57.5636C48.6741 57.5636 49.8276 56.822 49.8276 55.5637C49.8276 52.4099 40.8003 55.1755 40.8003 49.1089C40.8003 46.5039 43.1098 44.5254 46.8452 44.5254C50.5805 44.5254 52.7379 46.2388 52.7379 48.8465H49.4751C49.4751 47.6096 48.343 46.959 46.8452 46.959C45.3473 46.959 44.1218 47.5882 44.1218 48.7635C44.1218 51.9334 53.2318 49.1758 53.2318 55.1755C53.2318 58.0455 50.9303 59.9999 46.7731 59.9999C42.6159 59.9999 40.5493 58.3052 40.5493 55.4834H43.8201L43.8227 55.4807Z" fill="#004B41"/>
<path d="M217.041 55.4807C217.041 56.8301 218.243 57.5636 220.002 57.5636C221.893 57.5636 223.046 56.822 223.046 55.5637C223.046 52.4099 214.019 55.1755 214.019 49.1089C214.019 46.5039 216.329 44.5254 220.061 44.5254C223.794 44.5254 225.957 46.2388 225.957 48.8465H222.694C222.694 47.6096 221.562 46.959 220.061 46.959C218.561 46.959 217.338 47.5908 217.338 48.7635C217.338 51.9334 226.448 49.1758 226.448 55.1755C226.448 58.0455 224.138 59.9999 219.984 59.9999C215.829 59.9999 213.763 58.3052 213.763 55.4834H217.041V55.4807Z" fill="#004B41"/>
<path d="M36.1413 26.0629V17.3859H50.8424V12.8559H36.1413V5.00623H51.12V0.473633H30.8975V30.5954H51.4751V26.0629H36.1413Z" fill="#004B41"/>
<path d="M76.2204 18.0579C80.0545 16.6925 82.2519 13.6511 82.2519 9.69946C82.2519 6.94189 81.1919 4.61803 79.1921 2.98222C77.1896 1.34106 74.3327 0.473633 70.9391 0.473633H59.3887V30.5928H64.6272V18.8825H70.8537L77.6889 30.5553L77.7129 30.5928H83.7658L76.215 18.0605H76.2177L76.2204 18.0579ZM76.8558 9.69946C76.8558 12.6819 74.7438 14.3927 71.0592 14.3927H64.6326V5.00891H71.0592C74.7438 5.00891 76.8558 6.71967 76.8558 9.70214V9.69946Z" fill="#004B41"/>
<path d="M107.043 18.0579C110.877 16.6925 113.075 13.6511 113.075 9.69946C113.075 6.94189 112.02 4.61803 110.015 2.98222C108.012 1.34106 105.155 0.473633 101.762 0.473633H90.2114V30.5928H95.45V18.8825H101.676L108.514 30.5526L108.538 30.5901H114.591L107.038 18.0579H107.043ZM101.882 14.39H95.4526V5.00623H101.882C105.567 5.00623 107.679 6.717 107.679 9.69946C107.679 12.6819 105.567 14.3927 101.882 14.3927V14.39Z" fill="#004B41"/>
<path d="M139.556 0.527178L139.537 0.473633H129.69L119.269 30.5928H124.793L127.669 21.9988H141.556L144.431 30.5928H149.955L139.556 0.527178ZM140.044 17.5063H129.183L134.635 1.42406L140.047 17.5063H140.044Z" fill="#004B41"/>
<path d="M190.475 0.473633L184.04 29.5299L178.903 0.537887L178.893 0.473633H169.024L163.837 29.4121L157.458 0.532532L157.445 0.473633H152.161L158.884 30.5339L158.897 30.5928H168.88L173.98 1.55257L179.04 30.5928H189.023L195.738 0.570014L195.759 0.473633H190.475Z" fill="#004B41"/>
<path d="M208.031 0.473633H202.792V30.5928H208.031V0.473633Z" fill="#004B41"/>
<path d="M231.291 13.2923L227.313 12.4249C223.1 11.4745 221.22 10.6392 221.22 8.20288C221.22 5.9406 223.757 4.29676 227.252 4.29676C230.747 4.29676 232.989 5.69697 233.801 8.4599L233.82 8.51612H239.253L239.24 8.42509C238.799 5.91918 237.502 3.82021 235.491 2.34772C233.393 0.81365 230.546 0.00244141 227.257 0.00244141C220.828 0.00244141 215.984 3.73186 215.984 8.67408C215.984 12.9095 218.764 15.6671 224.248 16.8718L228.269 17.7393C232.778 18.7459 234.792 19.6321 234.792 22.2344C234.792 25.0321 231.983 26.7697 227.457 26.7697C223.583 26.7697 220.99 24.7456 220.515 21.3562L220.507 21.2893H215.068L215.079 21.3777C215.944 27.3533 220.641 31.064 227.337 31.064C231.075 31.064 234.247 30.1805 236.508 28.5125C238.786 26.8339 239.99 24.4699 239.99 21.6855C239.99 17.161 237.392 14.6497 231.297 13.2923V13.2977L231.291 13.2923Z" fill="#004B41"/>
<path d="M14.8532 0.473633H0V5.71302H14.8532V0.473633Z" fill="#004B41"/>
<path d="M20.0916 0.473633L14.853 5.7157H25.0471V0.473633H20.0916Z" fill="#004B41"/>
<path d="M9.61475 10.9552V30.5447H14.8533V5.71582L9.61475 10.9552Z" fill="#004B41"/>
<path d="M251.663 26.0629V5.00623H266.642V0.473633H246.425V30.5954H267V26.0629H251.663Z" fill="#004B41"/>
<path d="M256.189 12.8535L251.661 17.3861H266.37V12.8535H256.189Z" fill="#004B41"/>
</g>
</g>
<defs>
<clipPath id="clip0_6001_4839">
<rect width="267" height="60" fill="white"/>
</clipPath>
</defs>
</svg>
