<svg width="114" height="113" viewBox="0 0 114 113" fill="none" xmlns="http://www.w3.org/2000/svg">
<g clip-path="url(#clip0_6311_17447)">
<path d="M21.4089 93.4431L12.001 102.857H19.0967H26.4452V93.4431H21.4089Z" fill="#004236"/>
<path d="M104.592 9.40419L114 0H106.904H99.5557V9.40419H104.592Z" fill="#004236"/>
<path d="M73.8406 33.2468H71.0322V63.49H73.8406V33.2468Z" fill="#004236"/>
<path d="M87.5638 46.9648H57.3086V49.7721H87.5638V46.9648Z" fill="#EF8030"/>
<path d="M102.486 113H84.999V107.386H96.869V95.511H102.486V113Z" fill="#EF8030"/>
<path d="M90.1664 102.557H54.1915C53.4145 102.557 52.7873 101.93 52.7873 101.154V84.0764H37.6597C36.8827 84.0764 36.2555 83.4494 36.2555 82.6728V63.2281H29.2534C28.7666 63.2281 28.3173 62.9754 28.0552 62.5637C27.8024 62.152 27.7744 61.628 27.999 61.1975L36.2649 44.7285V36.5408C36.2649 27.6887 39.6536 20.2963 46.0847 15.1684C51.7108 10.6769 59.3214 8.20654 67.5218 8.20654C83.5948 8.20654 99.8739 17.9382 99.8739 36.5408V57.2393C99.8739 57.4639 99.8177 57.6885 99.7147 57.885L91.5705 73.5586V101.154C91.5705 101.93 90.9433 102.557 90.1664 102.557ZM55.5957 99.75H88.7622V73.2218C88.7622 72.9972 88.8184 72.7726 88.9213 72.5761L97.0655 56.9025V36.5501C97.0655 19.791 82.2 11.0231 67.5218 11.0231C47.8634 11.0231 39.0639 23.8428 39.0639 36.5501V45.0654C39.0639 45.2806 39.0264 45.5052 38.9235 45.6923L31.5282 60.4208H37.6597C38.4367 60.4208 39.0639 61.0478 39.0639 61.8245V81.2691H54.1915C54.9685 81.2691 55.5957 81.8961 55.5957 82.6728V99.75Z" fill="#004236"/>
<path d="M10.5501 82.3733L9.82926 81.3065C-12.1694 48.7428 9.6046 15.524 9.82926 15.1965L10.5501 14.1204L52.2446 37.4016L50.8779 39.8532L11.4862 17.854C8.09745 23.6462 -6.18765 51.288 11.4487 78.649L50.8779 56.6404L52.2446 59.092L10.5501 82.3639V82.3733Z" fill="#EF8030"/>
</g>
<defs>
<clipPath id="clip0_6311_17447">
<rect width="114" height="113" fill="white"/>
</clipPath>
</defs>
</svg>
