<svg width="97" height="114" viewBox="0 0 97 114" fill="none" xmlns="http://www.w3.org/2000/svg">
<g clip-path="url(#clip0_6311_17435)">
<path d="M63.555 37.4736L43.7539 57.2238V82.9929H53.6677V47.3443H61.1184H61.1272H68.8506V37.4736H63.555Z" fill="#004236"/>
<path d="M53.6678 37.4736H29.873V47.3443H53.6678V37.4736Z" fill="#004236"/>
<path d="M97.0004 101.286H80.5684V96.0221H91.7224V84.8967H97.0004V101.286Z" fill="#EF8030"/>
<path d="M16.432 103.164H0V86.7744H5.27795V97.8998H16.432V103.164Z" fill="#EF8030"/>
<path d="M48.5129 114C47.5805 114 35.7315 106.156 24.4895 92.8723C13.7928 80.229 0.905793 59.2856 0.298828 31.2879V30.8755L0.518743 30.5333C1.08172 29.6823 14.778 9.625 48.4953 9.625C82.2127 9.625 95.9178 29.6823 96.4808 30.5333L96.7095 30.8755V31.2879C95.5131 85.5373 49.4542 113.728 48.988 113.912L48.7592 114.009H48.5129V114ZM2.9466 31.6652C4.2309 79.9746 42.8391 107.367 48.5041 111.122C54.1604 107.367 92.7774 80.0184 94.0617 31.6652C92.1616 29.112 78.4565 12.2572 48.5041 12.2572C18.5518 12.2572 4.83787 29.112 2.9466 31.6652Z" fill="#004236"/>
<path d="M81.9789 19.0129L17.8867 82.9402L19.7528 84.8014L83.845 20.8741L81.9789 19.0129Z" fill="#EF8030"/>
<path d="M60.8905 24.0494L48.5049 11.6869L36.1105 24.0494L30.252 18.1972L48.5049 0L66.749 18.1972L60.8905 24.0494Z" fill="white"/>
<path d="M56.3858 20.8997L48.5041 13.0294L40.6135 20.8997L36.8838 17.1795L48.5041 5.58911L60.1244 17.1795L56.3858 20.8997Z" fill="#EF8030"/>
<path d="M49.8235 95.8643H47.1846V111.649H49.8235V95.8643Z" fill="#004236"/>
</g>
<defs>
<clipPath id="clip0_6311_17435">
<rect width="97" height="114" fill="white"/>
</clipPath>
</defs>
</svg>
