<svg width="23" height="41" viewBox="0 0 23 41" fill="none" xmlns="http://www.w3.org/2000/svg">
<path d="M21.4377 7.25H14.8127C13.593 7.25 12.6043 8.23871 12.6043 9.45833V16.0833H21.4377C21.6888 16.0778 21.927 16.1946 22.0763 16.3967C22.2256 16.5988 22.2676 16.8607 22.1885 17.0992L20.5543 21.9575C20.4037 22.4034 19.987 22.7048 19.5164 22.7083H12.6043V39.2708C12.6043 39.8806 12.1099 40.375 11.5002 40.375H5.97933C5.36952 40.375 4.87516 39.8806 4.87516 39.2708V22.7083H1.56266C0.952854 22.7083 0.458496 22.2139 0.458496 21.6042V17.1875C0.458496 16.5778 0.952854 16.0833 1.56266 16.0833H4.87516V9.45833C4.87516 4.57982 8.83007 0.625 13.7085 0.625H21.4377C22.0474 0.625 22.5418 1.11936 22.5418 1.72917V6.14583C22.5418 6.75564 22.0474 7.25 21.4377 7.25Z" fill="#247753"/>
</svg>
