<svg width="41" height="41" viewBox="0 0 41 41" fill="none" xmlns="http://www.w3.org/2000/svg">
<path fill-rule="evenodd" clip-rule="evenodd" d="M29.3333 0.625H11.6667C5.56853 0.625 0.625 5.56853 0.625 11.6667V29.3333C0.625 35.4314 5.56853 40.375 11.6667 40.375H29.3333C35.4314 40.375 40.375 35.4314 40.375 29.3333V11.6667C40.375 5.56853 35.4314 0.625 29.3333 0.625ZM36.5104 29.3333C36.4983 33.292 33.292 36.4983 29.3333 36.5104H11.6667C7.7079 36.4983 4.50171 33.292 4.48958 29.3333V11.6667C4.50171 7.7079 7.7079 4.50171 11.6667 4.48958H29.3333C33.292 4.50171 36.4983 7.7079 36.5104 11.6667V29.3333ZM30.9896 12.2187C32.2092 12.2187 33.1979 11.23 33.1979 10.0104C33.1979 8.7908 32.2092 7.80208 30.9896 7.80208C29.7699 7.80208 28.7812 8.7908 28.7812 10.0104C28.7812 11.23 29.7699 12.2187 30.9896 12.2187ZM20.5 10.5625C15.0117 10.5625 10.5625 15.0117 10.5625 20.5C10.5625 25.9884 15.0117 30.4375 20.5 30.4375C25.9884 30.4375 30.4375 25.9884 30.4375 20.5C30.4435 17.8626 29.3983 15.3315 27.5333 13.4666C25.6684 11.6017 23.1374 10.5566 20.5 10.5625ZM14.4271 20.5C14.4271 23.854 17.146 26.5729 20.5 26.5729C23.854 26.5729 26.5729 23.854 26.5729 20.5C26.5729 17.146 23.854 14.4271 20.5 14.4271C17.146 14.4271 14.4271 17.146 14.4271 20.5Z" fill="#247753"/>
</svg>
