<svg width="40" height="39" viewBox="0 0 40 39" fill="none" xmlns="http://www.w3.org/2000/svg">
<path fill-rule="evenodd" clip-rule="evenodd" d="M4.83333 0.375H35.1667C37.56 0.375 39.5 2.27779 39.5 4.625V34.375C39.5 36.7223 37.56 38.625 35.1667 38.625H4.83333C2.4401 38.625 0.5 36.7223 0.5 34.375V4.625C0.5 2.27779 2.4401 0.375 4.83333 0.375ZM11.3333 32.25C11.9316 32.25 12.4167 31.7742 12.4167 31.1875V16.3125C12.4167 15.7258 11.9316 15.25 11.3333 15.25H8.08333C7.48503 15.25 7 15.7258 7 16.3125V31.1875C7 31.7742 7.48503 32.25 8.08333 32.25H11.3333ZM9.70833 13.125C7.9134 13.125 6.45833 11.6979 6.45833 9.9375C6.45833 8.17709 7.9134 6.75 9.70833 6.75C11.5033 6.75 12.9583 8.17709 12.9583 9.9375C12.9583 11.6979 11.5033 13.125 9.70833 13.125ZM31.9167 32.25C32.5149 32.25 33 31.7742 33 31.1875V21.4125C33.0704 18.0354 30.5248 15.1534 27.1067 14.74C24.7168 14.5259 22.4013 15.6206 21.0833 17.5875V16.3125C21.0833 15.7258 20.5982 15.25 20 15.25H16.75C16.1518 15.25 15.6667 15.7258 15.6667 16.3125V31.1875C15.6667 31.7742 16.1518 32.25 16.75 32.25H20C20.5982 32.25 21.0833 31.7742 21.0833 31.1875V23.2188C21.0833 21.4584 22.5385 20.0312 24.3333 20.0312C26.1282 20.0312 27.5833 21.4584 27.5833 23.2188V31.1875C27.5833 31.7742 28.0685 32.25 28.6667 32.25H31.9167Z" fill="#247753"/>
</svg>
