<svg width="46" height="33" viewBox="0 0 46 33" fill="none" xmlns="http://www.w3.org/2000/svg">
<path d="M45.0353 5.1502C44.5091 3.1184 42.945 1.52571 40.9717 0.982409C37.3832 0 23 0 23 0C23 0 8.61678 0 5.02828 0.982409C3.04766 1.52571 1.49094 3.1184 0.964728 5.1502C0 8.82679 0 16.5 0 16.5C0 16.5 0 24.1732 0.964728 27.8498C1.49094 29.8816 3.05497 31.4743 5.02828 32.0176C8.61678 33 23 33 23 33C23 33 37.3832 33 40.9717 32.0176C42.9523 31.4743 44.5091 29.8742 45.0353 27.8498C46 24.1732 46 16.5 46 16.5C46 16.5 46 8.82679 45.0353 5.1502ZM18.2933 23.4662V9.53383L30.3159 16.5L18.2933 23.4662Z" fill="#247753"/>
</svg>
